# xmcd CD database file
#
# Track frame offsets:
#	150
#	14328
#	28512
#	43517
#	56972
#	71812
#	86026
#	100163
#	113027
#	125470
#	138139
#	149997
#	163462
#	176032
#	187311
#	199913
#
# Disc length: 2821 seconds
#
# Revision: 0
# Processed by: cddbd v1.4PL0 Copyright (c) Steve Scherf et al.
# Submitted via: CDex 1.50Beta7
#
DISCID=fb0b0310
DTITLE=Duke Ellington - Cotton Club Stomp Disc-1
DYEAR=1900
DGENRE=Jazz
TTITLE0=Cotton
TTITLE1=I Don't Know Why I Love You So
TTITLE2=Kissin' My Baby Good Night
TTITLE3=Yearning For Love
TTITLE4=Shoe Shine Boy
TTITLE5=It Was A Sad Night In Harlem
TTITLE6=Black Butterfly
TTITLE7=New Birmingham Breakdown
TTITLE8=Scattin' At The Kit Kat
TTITLE9=Chatter Box
TTITLE10=Prologue To The Black And Tan Fantasy
TTITLE11=Lost In Meditation
TTITLE12=Braggin' In Brass
TTITLE13=Carnival In Caloline
TTITLE14=Swingtime In Honolulu
TTITLE15=I'm Slappin' Seventh Avenue
EXTD=
EXTT0=
EXTT1=
EXTT2=
EXTT3=
EXTT4=
EXTT5=
EXTT6=
EXTT7=
EXTT8=
EXTT9=
EXTT10=
EXTT11=
EXTT12=
EXTT13=
EXTT14=
EXTT15=
PLAYORDER=
